<svg xmlns="http://www.w3.org/2000/svg" viewBox="0 0 100 100"><defs><style>.cls-1{fill:#ed1c24;}.cls-2{fill:#231f20;}.cls-3{fill:#fff;}</style></defs><title>UX_Icons_IT_Final</title><g id="ExBloc_Red"><g id="おてほんブロック"><path class="cls-1" d="M60.08,38.77H39.49a1,1,0,0,0-1.09,1.09v20.6a1,1,0,0,0,1.09,1.09H60.08a1,1,0,0,0,1.1-1.09V39.86a1,1,0,0,0-1.1-1.09"/><path class="cls-2" d="M40.51,60.49a1,1,0,1,1,1-1,1,1,0,0,1-1,1"/><path class="cls-2" d="M40.51,41.85a1,1,0,1,1,1-1,1,1,0,0,1-1,1"/><path class="cls-2" d="M59.07,60.49a1,1,0,1,1,1-1,1,1,0,0,1-1,1"/><path class="cls-2" d="M59.07,41.85a1,1,0,1,1,1-1,1,1,0,0,1-1,1"/><path class="cls-3" d="M52.16,57.07a2.44,2.44,0,0,1-4.74,0,2.44,2.44,0,0,1,4.74,0Z"/><path class="cls-3" d="M49.79,41.4a3.41,3.41,0,0,0-3.41,4.38,31.17,31.17,0,0,0,1.73,6c.49,1.11,1,1.53,1.68,1.53s1.19-.42,1.67-1.53a30.46,30.46,0,0,0,1.73-6A3.4,3.4,0,0,0,49.79,41.4Z"/></g></g></svg>